# xmcd
#
# Track frame offsets:
#	150
#	13450
#	32675
#	49650
#	63237
#	76737
#	92275
#	115350
#	127700
#	140087
#
# Disc length: 2045 seconds
#
# Revision: 0
# Processed by: cddbd v1.4PL0 Copyright (c) Steve Scherf et al.
# Submitted via: EasyCDDAExtractor 5.0.4.1
#
DISCID=7907fb0a
DTITLE=Bobby Bare - Pure Country
DYEAR=1998
DGENRE=Country
TTITLE0=SleepTight, Good Night Man
TTITLE1=Tequila Sheila
TTITLE2=Willie Jones
TTITLE3=Learning To Live Again
TTITLE4=(I'm Not) A Candle In The Wind
TTITLE5=New Cut Road
TTITLE6=Numbers
TTITLE7=If You Ain't Got Nothin' (You Ain't Got Nothin' To Lose)
TTITLE8=Praise The Lord And Send Me The Money
TTITLE9=It's A Dirty Job
EXTD=
EXTT0=
EXTT1=
EXTT2=
EXTT3=
EXTT4=
EXTT5=
EXTT6=
EXTT7=
EXTT8=
EXTT9=
PLAYORDER=
